<svg id="visual" viewBox="0 0 900 600" width="900" height="600" xmlns="http://www.w3.org/2000/svg" xmlns:xlink="http://www.w3.org/1999/xlink" version="1.1"><rect x="0" y="0" width="900" height="600" fill="#002233"></rect><path d="M0 293L13.7 309.2C27.3 325.3 54.7 357.7 82 375.8C109.3 394 136.7 398 163.8 407.3C191 416.7 218 431.3 245.2 405.7C272.3 380 299.7 314 327 312.5C354.3 311 381.7 374 409 377.2C436.3 380.3 463.7 323.7 491 297.7C518.3 271.7 545.7 276.3 573 308.7C600.3 341 627.7 401 654.8 419C682 437 709 413 736.2 391.5C763.3 370 790.7 351 818 333.8C845.3 316.7 872.7 301.3 886.3 293.7L900 286L900 601L886.3 601C872.7 601 845.3 601 818 601C790.7 601 763.3 601 736.2 601C709 601 682 601 654.8 601C627.7 601 600.3 601 573 601C545.7 601 518.3 601 491 601C463.7 601 436.3 601 409 601C381.7 601 354.3 601 327 601C299.7 601 272.3 601 245.2 601C218 601 191 601 163.8 601C136.7 601 109.3 601 82 601C54.7 601 27.3 601 13.7 601L0 601Z" fill="#0066FF" stroke-linecap="round" stroke-linejoin="miter"></path></svg>